<svg width="512" height="512" viewBox="0 0 512 512" fill="none" xmlns="http://www.w3.org/2000/svg">
<rect width="512" height="512" rx="256" fill="#5DE847"/>
<path d="M112.776 361H165.311L144.297 333.909H112.776C112.776 333.909 64.6639 320.087 65.2169 275.858C65.7699 231.628 102.268 201.22 152.039 220.57C152.039 220.57 129.132 162.201 192.962 138.192C256.791 114.184 283.102 174.129 283.102 174.129C283.102 174.129 323.472 123.265 367.159 158.096C410.847 192.927 391.492 231.628 391.492 231.628C391.492 231.628 448.451 231.628 448.451 286.915C444.581 325.616 403.658 333.909 403.658 333.909H372.136L350.569 361H403.658C403.658 361 474.443 349.943 474.996 286.915C475.549 223.888 423.013 210.619 423.013 210.619C423.013 210.619 423.013 164.177 382.09 133.769C341.168 103.361 288.079 133.769 288.079 133.769C288.079 133.769 238.861 85.1165 179.69 112.207C120.518 139.298 122.73 187.398 122.73 187.398C112.776 185.186 35.8282 195.691 37.0136 275.858C38.1989 356.024 112.776 361 112.776 361Z" fill="black"/>
<path d="M235.123 215H253.844V360.915H204.962C189.847 360.915 177.574 356.121 168.145 346.532C158.715 336.805 154 324.576 154 309.845C154 295.392 158.854 283.302 168.561 273.575C178.406 263.708 190.055 258.775 203.506 258.775C212.104 258.775 220.147 260.859 227.635 265.028V283.789C220.701 278.786 212.658 276.285 203.506 276.285C195.186 276.285 188.113 279.411 182.289 285.665C176.604 291.779 173.761 299.839 173.761 309.845C173.761 319.99 176.465 328.119 181.873 334.234C187.42 340.348 195.116 343.406 204.962 343.406H235.123V215Z" fill="black"/>
<path d="M260.076 215H278.797V310.887C278.797 321.866 281.57 330.412 287.117 336.527C292.803 342.502 300.568 345.49 310.414 345.49C320.676 345.49 328.719 342.572 334.543 336.735C340.367 330.76 343.279 322.144 343.279 310.887C343.279 300.187 340.09 291.779 333.711 285.665C327.471 279.411 319.22 276.285 308.958 276.285C300.222 276.285 292.664 278.786 286.285 283.789V265.028C293.912 260.859 302.163 258.775 311.038 258.775C325.737 258.775 337.871 263.569 347.439 273.158C357.146 282.608 362 295.184 362 310.887C362 327.424 356.938 340.279 346.815 349.451C336.831 358.484 324.212 363 308.958 363C294.397 363 282.61 358.275 273.597 348.825C264.583 339.376 260.076 326.73 260.076 310.887V215Z" fill="black"/>
</svg>
