<svg width="512" height="512" viewBox="0 0 512 512" fill="none" xmlns="http://www.w3.org/2000/svg">
<rect width="512" height="512" rx="256" fill="#5DE847"/>
<path d="M198.055 355.077C143.006 355.077 98.3333 310.516 98.3333 255.452C98.3333 200.387 143.006 155.667 198.055 155.667H313.961C369.026 155.667 413.667 200.387 413.667 255.452C413.667 310.516 369.026 355.077 313.961 355.077H198.055ZM311.383 319.906C347.048 319.906 375.933 291.1 375.933 255.452C375.933 219.803 347.048 190.838 311.383 190.838H200.617C164.968 190.838 136.067 219.803 136.067 255.452C136.067 291.1 164.968 319.906 200.617 319.906H311.383Z" fill="black"/>
</svg>
