<svg width="512" height="512" viewBox="0 0 512 512" fill="none" xmlns="http://www.w3.org/2000/svg">
<rect width="512" height="512" rx="256" fill="#5DE847"/>
<g clip-path="url(#clip0_4_110)">
<path d="M165.366 143.72L166.154 143.734L166.721 144.283C167.499 145.037 168.467 145.651 169.705 146.523C170.839 147.322 172.181 148.331 173.133 149.718L173.378 150.093C173.921 150.969 174.269 151.843 174.538 152.457C174.828 153.119 175.058 153.569 175.368 153.941L175.506 154.097L176.055 154.673L176.057 155.469C176.071 161.222 174.545 165.531 170.737 168.292C170.594 168.436 170.453 168.577 170.319 168.708L168.319 170.668L167.114 168.14C165.429 164.605 163.744 161.068 162.062 157.525C161.061 156.117 159.878 154.897 158.545 153.402C157.467 152.194 156.341 150.851 155.406 149.257H154.086V145.137L155.656 144.792C158.364 144.198 161.026 143.711 164.632 143.713L165.366 143.72ZM411.703 348.491L410.248 348.903C406.659 349.919 403.071 350.948 399.471 351.979L399.446 351.986L399.421 351.993C395.271 353.066 391.41 353.459 387.74 353.839C384.04 354.222 380.537 354.593 376.853 355.581L376.852 355.58C373.23 356.553 368.561 357.965 364.166 358.773C364.855 359.873 365.831 361.007 367.073 362.168C368.945 363.918 371.293 365.618 373.838 367.267C376.38 368.914 379.051 370.467 381.573 371.951C384.063 373.416 386.442 374.834 388.283 376.157L389.119 376.762C397.704 383.023 405.786 390.515 412.237 399.044L418.822 405.629L418.95 405.758L419.054 405.907C419.969 407.232 420.536 408.744 421.011 409.937C421.521 411.219 421.948 412.206 422.57 412.995L423 413.539V417.581L420.33 416.633C418.362 415.933 416.925 414.734 415.755 413.617C414.495 412.416 413.701 411.497 412.627 410.709L412.626 410.708C407.636 407.041 402.797 403.141 397.842 400.004L397.84 400.003C393.721 397.389 389.251 395.324 384.601 393.199C379.99 391.093 375.2 388.927 370.661 386.158C365.592 383.066 360.713 379.242 356.124 375.779V375.778C351.594 372.356 346.686 366.017 343.821 361.366V361.365C342.964 359.977 342.439 358.415 342 357.277C341.522 356.038 341.104 355.164 340.479 354.509L339.817 353.815L339.942 352.866C340.361 349.686 342.692 348.209 344.771 347.398C345.8 346.997 346.91 346.701 347.861 346.441C348.865 346.168 349.698 345.933 350.394 345.641C361.77 340.847 374.853 339.069 391.372 339.252C391.33 339.207 391.289 339.16 391.244 339.114C390.191 338.031 388.746 336.898 387.125 335.773C385.514 334.656 383.798 333.592 382.229 332.632C380.697 331.695 379.234 330.814 378.255 330.123L375.496 328.169C369.048 323.583 362.517 318.856 355.781 314.793V314.792C353.939 313.683 351.337 312.656 348.528 311.648C345.812 310.674 342.856 309.704 340.642 308.77L340.64 308.769C339.213 308.165 337.312 307.549 335.123 306.875C332.971 306.212 330.556 305.497 328.238 304.721C325.919 303.944 323.609 303.077 321.632 302.083C319.696 301.11 317.863 299.91 316.709 298.368H316.708C310.754 290.409 306.433 280.994 302.321 271.671L300.567 267.686C298.231 262.382 295.581 256.935 292.905 251.413C290.236 245.905 287.545 240.326 285.16 234.817L285.159 234.815C283.957 232.032 283.053 229.373 282.154 226.882C281.36 224.68 280.559 222.573 279.522 220.452L279.062 219.543C262.926 188.608 239.459 162.609 210.802 144.172L209.433 143.3C199.807 137.221 189.28 131.675 177.575 128.118C174.474 127.176 171.003 126.951 167.205 126.771C163.569 126.6 159.621 126.468 155.86 125.636H151.169L150.893 125.555C148.438 124.833 146.306 123.215 144.515 121.697C142.591 120.067 141.121 118.625 139.578 117.601C132.757 113.084 126.012 109.883 117.836 106.486C116.326 105.859 113.6 104.821 110.932 104.219C109.594 103.917 108.351 103.744 107.324 103.757C106.253 103.77 105.695 103.984 105.452 104.171L105.182 104.378L104.858 104.485C104.125 104.727 103.818 104.933 103.644 105.104C103.478 105.268 103.276 105.556 103.057 106.261L102.972 106.535L102.812 106.774C102.373 107.435 102.242 108.467 102.53 109.927C102.811 111.348 103.42 112.827 103.992 114.067L103.994 114.07C105.55 117.456 107.462 120.201 109.551 122.868C111.588 125.469 113.972 128.203 116.122 131.196L119.105 135.314C122.194 139.594 125.456 144.306 127.611 148.984L127.612 148.985C130.57 155.416 132.695 162.178 134.743 168.789C136.804 175.441 138.785 181.929 141.476 188.027L141.874 188.911C143.917 193.363 146.706 198.271 149.482 202.024L149.485 202.028C150.605 203.551 152.077 204.783 153.825 206.558C155.405 208.162 157.069 210.105 157.912 212.657C158.877 214.379 158.852 216.658 158.581 218.701C158.28 220.973 157.588 223.538 156.789 226.024C155.986 228.524 155.049 231.023 154.227 233.17C153.493 235.085 152.875 236.662 152.49 237.776L152.34 238.226C146.659 255.888 147.768 280.605 154.031 296.171L154.333 296.905V296.906C155.708 300.176 156.911 303.361 158.639 306.013C160.071 308.211 161.765 309.873 164.043 310.751C164.694 305.227 165.208 299.599 165.972 294.373C166.818 288.588 168.007 282.999 170.157 277.908V277.907C171.552 274.606 173.558 271.869 175.547 269.386C177.586 266.839 179.514 264.66 181.101 262.199L182.132 260.602L183.779 261.551C185.738 262.678 186.518 264.769 186.976 266.343C187.211 267.152 187.419 268.06 187.602 268.774C187.798 269.543 187.984 270.181 188.21 270.707L190.515 276.083C192.838 281.506 195.241 287.018 197.908 292.139V292.14C205.406 306.544 213.618 320.351 222.898 332.945V332.946C226.141 337.347 230.531 342.161 234.502 346.055L234.505 346.058C235.231 346.773 235.987 347.269 237.009 348.046C237.73 348.594 238.52 349.242 239.235 350.098H240.746V355.416L238.1 354.512C234.207 353.182 231.167 350.584 228.539 347.996C225.798 345.297 223.64 342.777 221.114 340.867L220.136 340.121C209.961 332.299 198.157 320.984 191.353 310.03L191.304 309.951L191.263 309.869C188.959 305.259 186.651 300.648 184.344 296.037C184.302 296.235 184.258 296.436 184.207 296.637L184.206 296.642C183.515 299.331 183.124 302.138 182.771 304.987C182.422 307.792 182.104 310.689 181.551 313.355C180.434 318.734 178.232 323.791 172.241 326.231L172.24 326.23C165.544 328.964 159.774 326.681 155.425 323.196C151.134 319.758 147.981 314.983 146.181 312.091C134.146 292.783 131.126 260.715 139.296 234.956C140.151 232.253 140.589 229.368 141.292 226.211C141.9 223.481 142.701 220.618 144.21 218.192C143.94 217.169 143.385 216.424 142.615 215.657C142.094 215.138 141.602 214.727 140.943 214.12C140.335 213.56 139.665 212.901 139.077 212.1C135.893 207.761 133.14 202.683 130.694 197.979L130.693 197.979C125.792 188.537 122.458 177.334 118.796 167.46V167.459C117.984 165.288 117.497 163.169 117.021 161.259C116.536 159.309 116.055 157.534 115.254 155.789V155.788C112.661 150.157 108.046 144.571 104.151 139.187V139.186C102.838 137.367 100.985 135.194 98.8428 132.483C96.7519 129.837 94.4895 126.802 92.5811 123.505C88.7845 116.945 86.1917 108.993 89.5508 100.804H89.5498C92.1486 94.4613 96.4428 90.7711 101.665 89.0986C106.784 87.4591 112.612 87.8131 118.315 89.1191C129.005 91.5671 139.968 97.5297 146.64 101.64L147.915 102.436L147.916 102.437C149.696 103.562 151.566 105.278 153.206 106.688C154.84 108.094 156.282 109.234 157.595 109.853C160.297 110.016 163.002 110.181 165.706 110.346L174.177 110.859L174.35 110.869L174.518 110.909C184.877 113.366 195.214 115.343 203.816 120.367H203.817C242.936 143.253 268.29 166.613 291.794 205.256L292.258 206.033C294.544 209.93 296.314 213.974 297.948 218.043C299.712 222.435 301.277 226.744 303.208 231.164L304.283 233.612C309.695 245.877 315.622 258.476 321.637 270.064H321.638C323.191 273.053 324.577 276.298 325.946 279.167C327.353 282.113 328.816 284.838 330.67 287.207C331.121 287.78 332.137 288.331 333.82 288.939C334.637 289.235 335.4 289.476 336.275 289.777C336.992 290.024 337.746 290.3 338.437 290.624L338.729 290.766L338.729 290.767C342.462 292.651 346.484 294.305 350.603 296.109C354.674 297.894 358.796 299.809 362.512 302.157L363.732 302.933C375.52 310.473 386.953 319.309 397.532 328.205L399.709 330.046L399.71 330.047C402.089 332.075 404.019 334.539 405.791 336.894C407.604 339.303 409.234 341.571 411.136 343.522L411.703 344.105V348.491Z" fill="black" stroke="black" stroke-width="4"/>
</g>
<defs>
<clipPath id="clip0_4_110">
<rect width="331" height="331" fill="white" transform="translate(90 90)"/>
</clipPath>
</defs>
</svg>
