<svg width="512" height="512" viewBox="0 0 512 512" fill="none" xmlns="http://www.w3.org/2000/svg">
<rect width="512" height="512" rx="256" fill="#5DE847"/>
<path d="M346.44 102C319.987 145.958 300.481 203.453 287.723 259.312C274.898 315.46 268.85 370.131 269.461 408H120.031C113.134 407.981 106.524 405.229 101.646 400.347C96.9212 395.616 94.1932 389.258 94.0098 382.587L94 381.94V128.06C94.0193 121.153 96.7688 114.536 101.646 109.653C106.372 104.923 112.722 102.193 119.385 102.01L120.031 102H346.44Z" stroke="black" stroke-width="4"/>
<path d="M403.946 91.9715C388.257 77.9086 369.169 83.5574 350.343 100.281C347.559 102.771 344.774 105.523 342.002 108.472C306.587 150.461 282.098 200.591 270.724 254.382C274.235 262.061 277.01 270.057 279.013 278.262C279.483 280.096 279.915 281.826 280.32 283.294C281.131 286.767 281.627 289.022 281.627 289.022C281.627 289.022 281.34 287.934 280.15 284.487L279.379 282.259C279.248 281.905 279.078 281.486 278.882 281.027C276.79 276.138 271.038 265.824 268.423 261.368C266.24 267.829 264.305 273.871 262.697 279.336C268.125 291.04 272.111 303.363 274.568 316.033C274.568 316.033 274.175 314.526 272.332 309.284C268.79 301.627 264.863 294.156 260.566 286.899C257.787 294.088 256.609 301.8 257.114 309.493C259.994 315.248 262.158 321.336 263.56 327.619C267.926 344.434 270.959 364.919 270.959 364.919C270.959 364.919 271.064 366.23 271.221 368.366C270.647 382.372 270.93 396.4 272.071 410.371C272.719 424.204 275.288 437.879 279.706 451L282.059 449.689C276.581 429.969 274.468 409.461 275.81 389.034C278.271 345.728 286.8 302.985 301.147 262.062C327.425 192.495 363.901 136.663 397.239 110.032C366.829 137.554 325.673 226.676 313.344 259.677C300.362 293.656 290.499 328.751 283.876 364.526C291.758 344.56 307.19 328.525 326.81 319.913C326.81 319.913 342.93 299.978 361.77 271.512C349.599 274.057 337.575 277.264 325.751 281.119C316.6 284.972 314.129 286.283 314.129 286.283C331.599 275.736 350.055 266.926 369.235 259.979C404.22 204.736 442.343 126.296 403.959 91.9059" fill="black"/>
</svg>
