<svg width="512" height="512" viewBox="0 0 512 512" fill="none" xmlns="http://www.w3.org/2000/svg">
<rect width="512" height="512" rx="256" fill="#5DE847"/>
<path d="M230.189 190.612C226.718 190.129 223.573 190.576 221.983 191.78C221.089 192.458 220.812 193.243 220.736 193.783C220.537 195.215 221.54 196.798 222.156 197.614C223.9 199.925 226.447 201.513 228.968 201.863C229.333 201.915 229.697 201.938 230.058 201.938C234.262 201.938 238.085 198.664 238.422 196.248C238.843 193.222 234.45 191.204 230.189 190.612ZM345.205 190.708C344.873 188.336 340.653 187.66 336.647 188.217C332.647 188.774 328.768 190.58 329.092 192.957C329.351 194.805 332.69 197.961 336.641 197.961C336.975 197.961 337.312 197.939 337.651 197.891C340.289 197.526 342.224 195.851 343.144 194.886C344.543 193.414 345.354 191.774 345.205 190.708Z" fill="black"/>
<mask id="path-3-outside-1_4_100" maskUnits="userSpaceOnUse" x="96.8371" y="91.5438" width="318" height="330" fill="black">
<rect fill="white" x="96.8371" y="91.5438" width="318" height="330"/>
<path d="M411.198 292.305C409.729 287.863 405.001 286.434 397.145 288.056C373.82 292.87 365.467 289.535 362.725 287.516C380.855 259.897 395.769 226.51 403.815 195.361C407.627 180.606 409.732 166.903 409.904 155.733C410.094 143.474 408.006 134.466 403.7 128.963C386.338 106.778 360.857 94.8779 330.012 94.5514C308.807 94.3131 290.891 99.7397 287.417 101.266C280.103 99.447 272.13 98.3303 263.449 98.1878C247.53 97.93 233.77 101.741 222.378 109.51C217.429 107.668 204.64 103.278 189 100.758C161.962 96.4052 140.475 99.7035 125.142 110.566C106.847 123.528 98.4002 146.699 100.036 179.432C100.587 190.445 106.862 224.324 116.765 256.768C129.799 299.472 143.969 323.646 158.877 328.619C160.622 329.201 162.634 329.608 164.853 329.608C170.291 329.608 176.959 327.157 183.896 318.817C192.358 308.666 201.11 298.762 210.144 289.117C216.004 292.262 222.443 294.019 229.027 294.195C229.04 294.368 229.057 294.54 229.073 294.711C227.939 296.062 226.829 297.434 225.743 298.824C221.181 304.616 220.231 305.822 205.545 308.846C201.367 309.708 190.271 311.995 190.108 319.773C189.932 328.271 203.224 331.84 204.739 332.218C210.017 333.539 215.101 334.191 219.95 334.191C231.743 334.191 242.121 330.315 250.414 322.816C250.159 353.111 251.422 382.964 255.06 392.059C258.039 399.505 265.317 417.703 288.306 417.701C291.679 417.701 295.392 417.309 299.477 416.433C323.47 411.29 333.889 400.685 337.919 377.306C340.076 364.812 343.777 334.976 345.519 318.972C349.192 320.119 353.922 320.643 359.035 320.642C369.699 320.642 382.005 318.376 389.722 314.794C398.391 310.768 414.035 300.889 411.198 292.305ZM354.061 184.161C353.982 188.885 353.331 193.174 352.642 197.651C351.9 202.467 351.133 207.445 350.94 213.488C350.75 219.37 351.484 225.484 352.194 231.398C353.629 243.342 355.102 255.639 349.401 267.772C348.454 266.094 347.61 264.359 346.875 262.578C346.166 260.861 344.627 258.101 342.496 254.282C334.207 239.416 314.794 204.602 324.732 190.396C327.692 186.167 335.204 181.82 354.061 184.161ZM331.204 104.118C358.841 104.729 380.703 115.068 396.181 134.847C408.053 150.018 394.98 219.049 357.136 278.602C356.756 278.118 356.373 277.636 355.988 277.155L355.509 276.556C365.288 260.406 363.376 244.426 361.674 230.259C360.975 224.445 360.314 218.954 360.482 213.795C360.656 208.329 361.379 203.639 362.078 199.105C362.937 193.518 363.812 187.736 363.571 180.921C363.751 180.206 363.823 179.361 363.729 178.358C363.113 171.823 355.652 152.263 340.443 134.559C332.124 124.875 319.992 114.039 303.427 106.73C310.552 105.253 320.295 103.876 331.204 104.118ZM176.555 312.712C168.912 321.902 163.634 320.141 161.898 319.563C150.589 315.79 137.466 291.887 125.896 253.982C115.885 221.183 110.035 188.202 109.571 178.954C108.11 149.705 115.2 129.321 130.645 118.367C155.782 100.542 197.11 111.211 213.716 116.622C213.478 116.858 213.229 117.078 212.994 117.318C185.742 144.838 186.389 191.858 186.456 194.733C186.454 195.842 186.547 197.412 186.674 199.571C187.143 207.48 188.016 222.199 185.684 238.868C183.518 254.357 188.293 269.518 198.782 280.463C199.859 281.585 200.99 282.652 202.173 283.661C197.504 288.661 187.356 299.719 176.555 312.712ZM205.675 273.858C197.221 265.036 193.382 252.765 195.14 240.189C197.601 222.581 196.693 207.246 196.204 199.007C196.136 197.854 196.075 196.843 196.04 196.046C200.021 192.516 218.469 182.632 231.626 185.646C237.629 187.021 241.288 191.109 242.808 198.141C250.68 234.547 243.85 249.721 238.362 261.915C237.231 264.427 236.163 266.802 235.251 269.258L234.543 271.157C232.753 275.958 231.087 280.422 230.055 284.661C221.067 284.635 212.324 280.795 205.675 273.857V273.858ZM207.055 322.956C204.431 322.3 202.07 321.161 200.685 320.217C201.842 319.673 203.901 318.932 207.471 318.196C224.748 314.64 227.417 312.129 233.244 304.731C234.58 303.034 236.094 301.112 238.191 298.769L238.194 298.767C241.317 295.269 242.746 295.862 245.337 296.938C247.437 297.806 249.483 300.438 250.312 303.335C250.704 304.703 251.145 307.299 249.703 309.32C237.531 326.363 219.793 326.144 207.055 322.956ZM297.477 407.098C276.34 411.627 268.856 400.842 263.924 388.513C260.741 380.554 259.176 344.662 260.287 305.025C260.301 304.498 260.226 303.989 260.081 303.51C259.951 302.563 259.754 301.627 259.49 300.709C257.84 294.941 253.817 290.117 248.992 288.117C247.074 287.323 243.556 285.865 239.328 286.947C240.229 283.232 241.793 279.036 243.489 274.493L244.2 272.582C245 270.428 246.006 268.195 247.068 265.833C252.811 253.075 260.675 235.601 252.14 196.124C248.942 181.338 238.265 174.117 222.08 175.795C212.377 176.799 203.499 180.713 199.071 182.958C198.119 183.44 197.249 183.907 196.435 184.36C197.671 169.462 202.34 141.62 219.805 124.005C230.802 112.916 245.447 107.439 263.291 107.734C298.449 108.309 320.996 126.352 333.72 141.389C344.684 154.344 350.621 167.396 352.991 174.436C335.172 172.623 323.053 176.14 316.91 184.924C303.545 204.029 324.221 241.11 334.159 258.932C335.981 262.197 337.554 265.02 338.049 266.22C341.285 274.063 345.474 279.299 348.533 283.12C349.471 284.291 350.38 285.428 351.072 286.42C345.675 287.976 335.981 291.571 336.865 309.54C336.152 318.556 331.086 360.77 328.512 375.684C325.114 395.388 317.863 402.727 297.477 407.099V407.098ZM385.702 306.135C380.184 308.697 370.948 310.618 362.175 311.031C352.485 311.484 347.552 309.945 346.392 308.998C345.848 297.8 350.015 296.631 354.426 295.392C355.119 295.198 355.795 295.007 356.448 294.779C356.854 295.11 357.298 295.438 357.785 295.759C365.573 300.899 379.465 301.454 399.077 297.405L399.292 297.363C396.646 299.836 392.12 303.155 385.702 306.135Z"/>
</mask>
<path d="M411.198 292.305C409.729 287.863 405.001 286.434 397.145 288.056C373.82 292.87 365.467 289.535 362.725 287.516C380.855 259.897 395.769 226.51 403.815 195.361C407.627 180.606 409.732 166.903 409.904 155.733C410.094 143.474 408.006 134.466 403.7 128.963C386.338 106.778 360.857 94.8779 330.012 94.5514C308.807 94.3131 290.891 99.7397 287.417 101.266C280.103 99.447 272.13 98.3303 263.449 98.1878C247.53 97.93 233.77 101.741 222.378 109.51C217.429 107.668 204.64 103.278 189 100.758C161.962 96.4052 140.475 99.7035 125.142 110.566C106.847 123.528 98.4002 146.699 100.036 179.432C100.587 190.445 106.862 224.324 116.765 256.768C129.799 299.472 143.969 323.646 158.877 328.619C160.622 329.201 162.634 329.608 164.853 329.608C170.291 329.608 176.959 327.157 183.896 318.817C192.358 308.666 201.11 298.762 210.144 289.117C216.004 292.262 222.443 294.019 229.027 294.195C229.04 294.368 229.057 294.54 229.073 294.711C227.939 296.062 226.829 297.434 225.743 298.824C221.181 304.616 220.231 305.822 205.545 308.846C201.367 309.708 190.271 311.995 190.108 319.773C189.932 328.271 203.224 331.84 204.739 332.218C210.017 333.539 215.101 334.191 219.95 334.191C231.743 334.191 242.121 330.315 250.414 322.816C250.159 353.111 251.422 382.964 255.06 392.059C258.039 399.505 265.317 417.703 288.306 417.701C291.679 417.701 295.392 417.309 299.477 416.433C323.47 411.29 333.889 400.685 337.919 377.306C340.076 364.812 343.777 334.976 345.519 318.972C349.192 320.119 353.922 320.643 359.035 320.642C369.699 320.642 382.005 318.376 389.722 314.794C398.391 310.768 414.035 300.889 411.198 292.305ZM354.061 184.161C353.982 188.885 353.331 193.174 352.642 197.651C351.9 202.467 351.133 207.445 350.94 213.488C350.75 219.37 351.484 225.484 352.194 231.398C353.629 243.342 355.102 255.639 349.401 267.772C348.454 266.094 347.61 264.359 346.875 262.578C346.166 260.861 344.627 258.101 342.496 254.282C334.207 239.416 314.794 204.602 324.732 190.396C327.692 186.167 335.204 181.82 354.061 184.161ZM331.204 104.118C358.841 104.729 380.703 115.068 396.181 134.847C408.053 150.018 394.98 219.049 357.136 278.602C356.756 278.118 356.373 277.636 355.988 277.155L355.509 276.556C365.288 260.406 363.376 244.426 361.674 230.259C360.975 224.445 360.314 218.954 360.482 213.795C360.656 208.329 361.379 203.639 362.078 199.105C362.937 193.518 363.812 187.736 363.571 180.921C363.751 180.206 363.823 179.361 363.729 178.358C363.113 171.823 355.652 152.263 340.443 134.559C332.124 124.875 319.992 114.039 303.427 106.73C310.552 105.253 320.295 103.876 331.204 104.118ZM176.555 312.712C168.912 321.902 163.634 320.141 161.898 319.563C150.589 315.79 137.466 291.887 125.896 253.982C115.885 221.183 110.035 188.202 109.571 178.954C108.11 149.705 115.2 129.321 130.645 118.367C155.782 100.542 197.11 111.211 213.716 116.622C213.478 116.858 213.229 117.078 212.994 117.318C185.742 144.838 186.389 191.858 186.456 194.733C186.454 195.842 186.547 197.412 186.674 199.571C187.143 207.48 188.016 222.199 185.684 238.868C183.518 254.357 188.293 269.518 198.782 280.463C199.859 281.585 200.99 282.652 202.173 283.661C197.504 288.661 187.356 299.719 176.555 312.712ZM205.675 273.858C197.221 265.036 193.382 252.765 195.14 240.189C197.601 222.581 196.693 207.246 196.204 199.007C196.136 197.854 196.075 196.843 196.04 196.046C200.021 192.516 218.469 182.632 231.626 185.646C237.629 187.021 241.288 191.109 242.808 198.141C250.68 234.547 243.85 249.721 238.362 261.915C237.231 264.427 236.163 266.802 235.251 269.258L234.543 271.157C232.753 275.958 231.087 280.422 230.055 284.661C221.067 284.635 212.324 280.795 205.675 273.857V273.858ZM207.055 322.956C204.431 322.3 202.07 321.161 200.685 320.217C201.842 319.673 203.901 318.932 207.471 318.196C224.748 314.64 227.417 312.129 233.244 304.731C234.58 303.034 236.094 301.112 238.191 298.769L238.194 298.767C241.317 295.269 242.746 295.862 245.337 296.938C247.437 297.806 249.483 300.438 250.312 303.335C250.704 304.703 251.145 307.299 249.703 309.32C237.531 326.363 219.793 326.144 207.055 322.956ZM297.477 407.098C276.34 411.627 268.856 400.842 263.924 388.513C260.741 380.554 259.176 344.662 260.287 305.025C260.301 304.498 260.226 303.989 260.081 303.51C259.951 302.563 259.754 301.627 259.49 300.709C257.84 294.941 253.817 290.117 248.992 288.117C247.074 287.323 243.556 285.865 239.328 286.947C240.229 283.232 241.793 279.036 243.489 274.493L244.2 272.582C245 270.428 246.006 268.195 247.068 265.833C252.811 253.075 260.675 235.601 252.14 196.124C248.942 181.338 238.265 174.117 222.08 175.795C212.377 176.799 203.499 180.713 199.071 182.958C198.119 183.44 197.249 183.907 196.435 184.36C197.671 169.462 202.34 141.62 219.805 124.005C230.802 112.916 245.447 107.439 263.291 107.734C298.449 108.309 320.996 126.352 333.72 141.389C344.684 154.344 350.621 167.396 352.991 174.436C335.172 172.623 323.053 176.14 316.91 184.924C303.545 204.029 324.221 241.11 334.159 258.932C335.981 262.197 337.554 265.02 338.049 266.22C341.285 274.063 345.474 279.299 348.533 283.12C349.471 284.291 350.38 285.428 351.072 286.42C345.675 287.976 335.981 291.571 336.865 309.54C336.152 318.556 331.086 360.77 328.512 375.684C325.114 395.388 317.863 402.727 297.477 407.099V407.098ZM385.702 306.135C380.184 308.697 370.948 310.618 362.175 311.031C352.485 311.484 347.552 309.945 346.392 308.998C345.848 297.8 350.015 296.631 354.426 295.392C355.119 295.198 355.795 295.007 356.448 294.779C356.854 295.11 357.298 295.438 357.785 295.759C365.573 300.899 379.465 301.454 399.077 297.405L399.292 297.363C396.646 299.836 392.12 303.155 385.702 306.135Z" fill="black"/>
<path d="M411.198 292.305C409.729 287.863 405.001 286.434 397.145 288.056C373.82 292.87 365.467 289.535 362.725 287.516C380.855 259.897 395.769 226.51 403.815 195.361C407.627 180.606 409.732 166.903 409.904 155.733C410.094 143.474 408.006 134.466 403.7 128.963C386.338 106.778 360.857 94.8779 330.012 94.5514C308.807 94.3131 290.891 99.7397 287.417 101.266C280.103 99.447 272.13 98.3303 263.449 98.1878C247.53 97.93 233.77 101.741 222.378 109.51C217.429 107.668 204.64 103.278 189 100.758C161.962 96.4052 140.475 99.7035 125.142 110.566C106.847 123.528 98.4002 146.699 100.036 179.432C100.587 190.445 106.862 224.324 116.765 256.768C129.799 299.472 143.969 323.646 158.877 328.619C160.622 329.201 162.634 329.608 164.853 329.608C170.291 329.608 176.959 327.157 183.896 318.817C192.358 308.666 201.11 298.762 210.144 289.117C216.004 292.262 222.443 294.019 229.027 294.195C229.04 294.368 229.057 294.54 229.073 294.711C227.939 296.062 226.829 297.434 225.743 298.824C221.181 304.616 220.231 305.822 205.545 308.846C201.367 309.708 190.271 311.995 190.108 319.773C189.932 328.271 203.224 331.84 204.739 332.218C210.017 333.539 215.101 334.191 219.95 334.191C231.743 334.191 242.121 330.315 250.414 322.816C250.159 353.111 251.422 382.964 255.06 392.059C258.039 399.505 265.317 417.703 288.306 417.701C291.679 417.701 295.392 417.309 299.477 416.433C323.47 411.29 333.889 400.685 337.919 377.306C340.076 364.812 343.777 334.976 345.519 318.972C349.192 320.119 353.922 320.643 359.035 320.642C369.699 320.642 382.005 318.376 389.722 314.794C398.391 310.768 414.035 300.889 411.198 292.305ZM354.061 184.161C353.982 188.885 353.331 193.174 352.642 197.651C351.9 202.467 351.133 207.445 350.94 213.488C350.75 219.37 351.484 225.484 352.194 231.398C353.629 243.342 355.102 255.639 349.401 267.772C348.454 266.094 347.61 264.359 346.875 262.578C346.166 260.861 344.627 258.101 342.496 254.282C334.207 239.416 314.794 204.602 324.732 190.396C327.692 186.167 335.204 181.82 354.061 184.161ZM331.204 104.118C358.841 104.729 380.703 115.068 396.181 134.847C408.053 150.018 394.98 219.049 357.136 278.602C356.756 278.118 356.373 277.636 355.988 277.155L355.509 276.556C365.288 260.406 363.376 244.426 361.674 230.259C360.975 224.445 360.314 218.954 360.482 213.795C360.656 208.329 361.379 203.639 362.078 199.105C362.937 193.518 363.812 187.736 363.571 180.921C363.751 180.206 363.823 179.361 363.729 178.358C363.113 171.823 355.652 152.263 340.443 134.559C332.124 124.875 319.992 114.039 303.427 106.73C310.552 105.253 320.295 103.876 331.204 104.118ZM176.555 312.712C168.912 321.902 163.634 320.141 161.898 319.563C150.589 315.79 137.466 291.887 125.896 253.982C115.885 221.183 110.035 188.202 109.571 178.954C108.11 149.705 115.2 129.321 130.645 118.367C155.782 100.542 197.11 111.211 213.716 116.622C213.478 116.858 213.229 117.078 212.994 117.318C185.742 144.838 186.389 191.858 186.456 194.733C186.454 195.842 186.547 197.412 186.674 199.571C187.143 207.48 188.016 222.199 185.684 238.868C183.518 254.357 188.293 269.518 198.782 280.463C199.859 281.585 200.99 282.652 202.173 283.661C197.504 288.661 187.356 299.719 176.555 312.712ZM205.675 273.858C197.221 265.036 193.382 252.765 195.14 240.189C197.601 222.581 196.693 207.246 196.204 199.007C196.136 197.854 196.075 196.843 196.04 196.046C200.021 192.516 218.469 182.632 231.626 185.646C237.629 187.021 241.288 191.109 242.808 198.141C250.68 234.547 243.85 249.721 238.362 261.915C237.231 264.427 236.163 266.802 235.251 269.258L234.543 271.157C232.753 275.958 231.087 280.422 230.055 284.661C221.067 284.635 212.324 280.795 205.675 273.857V273.858ZM207.055 322.956C204.431 322.3 202.07 321.161 200.685 320.217C201.842 319.673 203.901 318.932 207.471 318.196C224.748 314.64 227.417 312.129 233.244 304.731C234.58 303.034 236.094 301.112 238.191 298.769L238.194 298.767C241.317 295.269 242.746 295.862 245.337 296.938C247.437 297.806 249.483 300.438 250.312 303.335C250.704 304.703 251.145 307.299 249.703 309.32C237.531 326.363 219.793 326.144 207.055 322.956ZM297.477 407.098C276.34 411.627 268.856 400.842 263.924 388.513C260.741 380.554 259.176 344.662 260.287 305.025C260.301 304.498 260.226 303.989 260.081 303.51C259.951 302.563 259.754 301.627 259.49 300.709C257.84 294.941 253.817 290.117 248.992 288.117C247.074 287.323 243.556 285.865 239.328 286.947C240.229 283.232 241.793 279.036 243.489 274.493L244.2 272.582C245 270.428 246.006 268.195 247.068 265.833C252.811 253.075 260.675 235.601 252.14 196.124C248.942 181.338 238.265 174.117 222.08 175.795C212.377 176.799 203.499 180.713 199.071 182.958C198.119 183.44 197.249 183.907 196.435 184.36C197.671 169.462 202.34 141.62 219.805 124.005C230.802 112.916 245.447 107.439 263.291 107.734C298.449 108.309 320.996 126.352 333.72 141.389C344.684 154.344 350.621 167.396 352.991 174.436C335.172 172.623 323.053 176.14 316.91 184.924C303.545 204.029 324.221 241.11 334.159 258.932C335.981 262.197 337.554 265.02 338.049 266.22C341.285 274.063 345.474 279.299 348.533 283.12C349.471 284.291 350.38 285.428 351.072 286.42C345.675 287.976 335.981 291.571 336.865 309.54C336.152 318.556 331.086 360.77 328.512 375.684C325.114 395.388 317.863 402.727 297.477 407.099V407.098ZM385.702 306.135C380.184 308.697 370.948 310.618 362.175 311.031C352.485 311.484 347.552 309.945 346.392 308.998C345.848 297.8 350.015 296.631 354.426 295.392C355.119 295.198 355.795 295.007 356.448 294.779C356.854 295.11 357.298 295.438 357.785 295.759C365.573 300.899 379.465 301.454 399.077 297.405L399.292 297.363C396.646 299.836 392.12 303.155 385.702 306.135Z" stroke="black" stroke-width="6" mask="url(#path-3-outside-1_4_100)"/>
</svg>
