<svg width="512" height="512" viewBox="0 0 512 512" fill="none" xmlns="http://www.w3.org/2000/svg">
<rect width="512" height="512" rx="256" fill="#5DE847"/>
<path d="M107.371 370H161.706L139.972 341.961H107.371C107.371 341.961 57.6113 327.655 58.1833 281.876C58.7552 236.097 96.5037 204.624 147.979 224.653C147.979 224.653 124.287 164.239 190.303 139.39C256.318 114.54 283.53 176.585 283.53 176.585C283.53 176.585 325.282 123.939 370.466 159.99C415.65 196.041 395.632 236.097 395.632 236.097C395.632 236.097 454.542 236.097 454.542 293.321C450.539 333.377 408.214 341.961 408.214 341.961H375.613L353.308 370H408.214C408.214 370 481.424 358.555 481.995 293.321C482.567 228.086 428.233 214.352 428.233 214.352C428.233 214.352 428.233 166.285 385.909 134.812C343.584 103.339 288.678 134.812 288.678 134.812C288.678 134.812 237.774 84.4552 176.576 112.495C115.378 140.534 117.666 190.318 117.666 190.318C107.371 188.03 27.7881 198.902 29.014 281.876C30.2399 364.85 107.371 370 107.371 370Z" fill="black"/>
<path d="M233.853 219H253.204V369.845H202.677C187.053 369.845 174.368 364.889 164.621 354.976C154.874 344.92 150 332.277 150 317.049C150 302.108 155.017 289.61 165.051 279.554C175.228 269.354 187.268 264.254 201.172 264.254C210.059 264.254 218.373 266.408 226.113 270.718V290.113C218.946 284.941 210.632 282.355 201.172 282.355C192.572 282.355 185.261 285.587 179.241 292.052C173.364 298.373 170.426 306.706 170.426 317.049C170.426 327.537 173.221 335.941 178.811 342.262C184.545 348.583 192.5 351.744 202.677 351.744H233.853V219Z" fill="black"/>
<path d="M259.646 219H278.997V318.127C278.997 329.476 281.863 338.311 287.597 344.632C293.474 350.81 301.501 353.899 311.678 353.899C322.285 353.899 330.599 350.882 336.619 344.848C342.639 338.67 345.649 329.763 345.649 318.127C345.649 307.065 342.352 298.373 335.759 292.052C329.309 285.587 320.78 282.355 310.173 282.355C301.143 282.355 293.331 284.941 286.737 290.113V270.718C294.621 266.408 303.149 264.254 312.323 264.254C327.517 264.254 340.059 269.21 349.949 279.123C359.983 288.892 365 301.893 365 318.127C365 335.223 359.768 348.511 349.304 357.993C338.984 367.331 325.94 372 310.173 372C295.122 372 282.938 367.115 273.621 357.346C264.304 347.577 259.646 334.504 259.646 318.127V219Z" fill="black"/>
</svg>
