<svg width="512" height="512" viewBox="0 0 512 512" fill="none" xmlns="http://www.w3.org/2000/svg">
<rect width="512" height="512" rx="256" fill="#5DE847"/>
<path d="M337.885 216.882C317.951 128.781 270.841 99.8132 265.769 88.7458C260.221 80.9375 254.6 67.0493 254.6 67.0493C254.507 66.8148 254.359 66.4012 254.187 66C253.614 73.8083 253.318 76.8205 245.946 84.6966C234.531 93.6344 175.962 142.848 171.198 242.942C166.754 336.295 238.537 391.922 248.245 399.015L249.348 399.799V399.731C249.41 400.2 252.43 421.952 254.551 445H262.157C263.941 428.708 266.616 412.526 270.17 396.527L270.786 396.126C275.128 393.008 279.269 389.616 283.181 385.972L283.625 385.571C304.261 366.479 341.361 322.321 340.997 251.917C340.921 240.173 339.879 228.455 337.885 216.882ZM253.743 346.307C253.743 346.307 253.743 215.375 258.058 215.4C261.423 215.4 265.781 384.287 265.781 384.287C259.79 383.565 253.743 356.492 253.743 346.307Z" fill="black"/>
</svg>
