<svg width="863" height="361" viewBox="0 0 863 361" fill="none" xmlns="http://www.w3.org/2000/svg">
<path d="M122.388 322H180.201L157.076 292.169H122.388C122.388 292.169 69.443 276.948 70.0515 228.244C70.6601 179.54 110.825 146.055 165.596 167.363C165.596 167.363 140.387 103.089 210.629 76.6514C280.871 50.2141 309.825 116.224 309.825 116.224C309.825 116.224 354.25 60.2136 402.326 98.5684C427.936 119 433.86 140.641 433.803 156.405H447.5V182.346C459.274 185.542 474.004 192.379 483.155 207H515.978C502.022 166.067 463.79 156.405 463.79 156.405C463.79 156.405 463.79 105.265 418.757 71.7809C373.723 38.2966 315.302 71.7809 315.302 71.7809C315.302 71.7809 261.14 18.2061 196.024 48.0375C130.908 77.869 133.342 130.835 133.342 130.835C122.388 128.4 37.7105 139.967 39.0149 228.244C40.3193 316.521 122.388 322 122.388 322Z" fill="#5DE847"/>
<path d="M384.069 322H442.491C434.58 322 418.757 316.034 418.757 292.169H407.803L384.069 322Z" fill="#5DE847"/>
<path d="M257.05 161H277.75V322H223.7C206.987 322 193.417 316.71 182.99 306.13C172.563 295.397 167.35 281.903 167.35 265.65C167.35 249.703 172.717 236.363 183.45 225.63C194.337 214.743 207.217 209.3 222.09 209.3C231.597 209.3 240.49 211.6 248.77 216.2V236.9C241.103 231.38 232.21 228.62 222.09 228.62C212.89 228.62 205.07 232.07 198.63 238.97C192.343 245.717 189.2 254.61 189.2 265.65C189.2 276.843 192.19 285.813 198.17 292.56C204.303 299.307 212.813 302.68 223.7 302.68H257.05V161Z" fill="#5DE847"/>
<path d="M284.641 161H305.341V266.8C305.341 278.913 308.408 288.343 314.541 295.09C320.828 301.683 329.414 304.98 340.301 304.98C351.648 304.98 360.541 301.76 366.981 295.32C373.421 288.727 376.641 279.22 376.641 266.8C376.641 254.993 373.114 245.717 366.061 238.97C359.161 232.07 350.038 228.62 338.691 228.62C329.031 228.62 320.674 231.38 313.621 236.9V216.2C322.054 211.6 331.178 209.3 340.991 209.3C357.244 209.3 370.661 214.59 381.241 225.17C391.974 235.597 397.341 249.473 397.341 266.8C397.341 285.047 391.744 299.23 380.551 309.35C369.511 319.317 355.558 324.3 338.691 324.3C322.591 324.3 309.558 319.087 299.591 308.66C289.624 298.233 284.641 284.28 284.641 266.8V161Z" fill="#5DE847"/>
<path d="M421.8 278.3V161H442.5V278.3C442.5 283.82 443.113 288.343 444.34 291.87C445.72 295.243 447.79 297.697 450.55 299.23C453.31 300.61 455.993 301.53 458.6 301.99C461.207 302.45 464.657 302.68 468.95 302.68V322C451.777 322 439.587 318.703 432.38 312.11C425.327 305.517 421.8 294.247 421.8 278.3Z" fill="#0A0A0B"/>
<path d="M575.332 322H535.542C518.522 322 506.332 319.47 498.972 314.41C492.379 309.963 488.162 304.673 486.322 298.54C484.636 292.253 483.792 284.05 483.792 273.93V211.6H504.032V273.7C504.032 276.46 504.109 278.837 504.262 280.83C504.416 282.67 504.952 285.123 505.872 288.19C506.792 291.103 508.096 293.557 509.782 295.55C511.469 297.39 513.922 299.077 517.142 300.61C520.362 301.99 524.272 302.68 528.872 302.68H555.092V211.6H575.332V322Z" fill="#0A0A0B"/>
<path d="M605.333 211.6H706.763C717.65 211.6 726.313 213.67 732.753 217.81C739.346 221.95 743.64 227.317 745.633 233.91C747.78 240.503 748.853 248.4 748.853 257.6V322H728.613V257.6C728.613 245.64 725.01 237.743 717.803 233.91C714.123 231.917 706.686 230.92 695.493 230.92H686.063V322H665.823V230.92H625.573V322H605.333V211.6Z" fill="#0A0A0B"/>
<path d="M806.358 322H786.118V230.92H767.258L776.458 211.6H806.358V322ZM785.198 188.6C783.205 185.993 782.208 183.157 782.208 180.09C782.208 177.023 783.205 174.263 785.198 171.81C787.192 169.203 790.258 167.9 794.398 167.9C798.538 167.9 801.605 169.203 803.598 171.81C805.592 174.263 806.588 177.023 806.588 180.09C806.588 183.157 805.592 185.993 803.598 188.6C801.605 191.053 798.538 192.28 794.398 192.28C790.258 192.28 787.192 191.053 785.198 188.6Z" fill="#0A0A0B"/>
</svg>
